<?xml version="1.0" standalone="no"?>
<!DOCTYPE svg PUBLIC "-//W3C//DTD SVG 20010904//EN"
 "http://www.w3.org/TR/2001/REC-SVG-20010904/DTD/svg10.dtd">
<svg version="1.0" xmlns="http://www.w3.org/2000/svg"
 width="772.000000pt" height="772.000000pt" viewBox="0 0 772.000000 772.000000"
 preserveAspectRatio="xMidYMid meet">

<g transform="translate(0.000000,772.000000) scale(0.100000,-0.100000)"
fill="#000000" stroke="none">
<path d="M0 3860 l0 -3860 3860 0 3860 0 0 3860 0 3860 -3860 0 -3860 0 0
-3860z m4252 1787 c381 -100 688 -366 840 -728 51 -123 88 -282 93 -409 5
-105 4 -112 -8 -80 -21 53 -105 218 -135 264 -166 258 -382 451 -662 591 -70
36 -115 67 -173 122 -115 110 -273 204 -408 244 -40 12 -41 14 -18 21 13 4
103 6 199 4 149 -3 190 -7 272 -29z m-232 -459 c85 -41 188 -88 228 -103 40
-15 72 -31 70 -35 -2 -4 -43 -50 -93 -102 l-90 -96 -18 38 c-21 46 -79 76
-126 65 -26 -6 -34 -2 -62 30 -18 20 -45 43 -60 51 -41 21 -132 18 -180 -6
-50 -26 -99 -92 -99 -135 0 -30 -3 -33 -41 -38 -96 -13 -138 -116 -74 -180 24
-25 39 -21 21 5 -19 26 -20 58 -5 91 16 36 51 51 99 43 27 -4 39 -3 35 4 -9
15 12 84 36 114 27 35 90 66 131 66 44 -1 110 -31 134 -63 18 -22 26 -24 67
-20 55 6 87 -10 110 -57 12 -24 13 -33 3 -43 -26 -26 -224 -245 -268 -297
l-47 -55 -80 79 c-72 72 -82 78 -98 66 -29 -22 -93 -94 -93 -104 0 -6 11 -22
25 -36 l25 -26 -77 -18 c-89 -21 -268 -83 -329 -114 l-41 -21 -11 62 c-22 110
-32 248 -32 429 l0 178 28 6 c150 33 470 155 637 243 61 32 112 57 115 57 3
-1 75 -36 160 -78z m584 -222 l39 -7 -6 -257 c-4 -177 -10 -278 -21 -326 -9
-38 -17 -70 -19 -72 -2 -2 -44 14 -94 36 -120 51 -249 88 -384 108 l-109 17
104 118 c58 65 167 185 242 267 l137 148 36 -12 c20 -7 53 -16 75 -20z m-1984
-866 c44 -87 160 -248 241 -334 123 -131 282 -250 465 -347 64 -34 125 -77
174 -122 117 -107 261 -195 398 -243 28 -10 52 -21 52 -25 0 -13 -184 -19
-291 -9 -371 35 -683 215 -900 519 -138 194 -214 417 -225 656 l-5 110 34 -80
c18 -44 44 -100 57 -125z m190 -2130 c0 -53 -4 -90 -10 -90 -6 0 -10 37 -10
90 0 53 4 90 10 90 6 0 10 -37 10 -90z m177 25 c27 -35 51 -64 56 -65 4 0 8
17 8 38 3 90 17 94 18 5 0 -51 -3 -93 -8 -93 -5 0 -33 32 -63 72 l-53 72 -3
-72 c-4 -104 -22 -89 -22 18 0 52 4 90 10 90 5 0 31 -29 57 -65z m290 59 c13
-4 20 -10 18 -15 -3 -4 -17 -3 -30 3 -19 9 -29 7 -50 -6 -36 -23 -28 -38 32
-59 59 -22 73 -47 41 -79 -16 -16 -29 -19 -60 -15 -62 8 -65 23 -5 22 46 0 52
2 55 22 3 18 -4 24 -37 33 -40 10 -71 33 -71 51 0 5 9 18 20 29 20 20 47 25
87 14z m143 -55 c0 -78 11 -99 53 -99 48 0 57 15 57 92 0 39 4 68 10 68 6 0
10 -30 10 -70 0 -58 -3 -72 -22 -90 -32 -29 -81 -27 -107 6 -16 21 -21 41 -21
90 0 36 4 64 10 64 6 0 10 -27 10 -61z m358 45 c26 -18 31 -81 7 -90 -8 -4
-15 -12 -15 -19 0 -7 7 -18 15 -25 16 -13 20 -30 7 -30 -4 0 -16 14 -25 30
-15 24 -25 30 -53 30 -32 0 -34 -2 -35 -32 -1 -32 -2 -32 -10 7 -4 22 -8 64
-8 93 l-1 52 48 0 c27 0 57 -7 70 -16z m252 6 c0 -5 -22 -10 -50 -10 -49 0
-50 -1 -50 -30 0 -29 2 -30 45 -30 25 0 45 -5 45 -10 0 -6 -19 -9 -42 -8 -42
3 -43 2 -46 -29 l-3 -33 55 0 c31 0 56 -4 56 -10 0 -6 -28 -10 -65 -10 l-65 0
0 90 0 90 60 0 c33 0 60 -4 60 -10z m230 0 c0 -5 -13 -10 -30 -10 l-30 0 0
-80 c0 -47 -4 -80 -10 -80 -6 0 -10 33 -10 80 l0 80 -35 0 c-19 0 -35 5 -35
10 0 6 32 10 75 10 43 0 75 -4 75 -10z m210 0 c0 -5 -25 -10 -55 -10 -54 0
-55 0 -55 -30 0 -29 1 -30 50 -30 28 0 50 -4 50 -10 0 -5 -22 -10 -50 -10 -49
0 -50 -1 -50 -30 0 -30 1 -30 55 -30 30 0 55 -4 55 -10 0 -6 -27 -10 -60 -10
l-60 0 0 90 0 90 60 0 c33 0 60 -4 60 -10z m226 -6 c19 -15 19 -16 -1 -8 -62
24 -115 -9 -115 -71 0 -48 28 -69 87 -62 43 4 46 4 28 -9 -34 -25 -93 -13
-122 25 -7 9 -13 32 -13 53 0 66 86 113 136 72z m137 -50 c-4 -11 7 -14 56
-14 l61 0 0 41 c0 24 4 38 10 34 6 -3 10 -44 10 -91 0 -49 -4 -84 -10 -84 -5
0 -10 18 -10 40 l0 40 -59 0 -60 0 -4 -42 c-2 -24 -4 0 -4 52 -1 67 1 87 7 67
5 -16 6 -35 3 -43z"/>
<path d="M3804 4865 c-7 -19 -21 -51 -29 -70 -13 -32 -13 -37 0 -42 9 -3 24
-3 35 0 25 6 25 11 -5 -57 -14 -31 -21 -56 -16 -56 15 0 134 151 125 160 -5 5
-19 10 -32 12 l-22 3 24 36 c14 20 22 39 19 43 -4 3 -24 6 -45 6 -35 0 -40 -3
-54 -35z"/>
<path d="M3682 1998 c3 -41 4 -43 39 -46 48 -4 77 26 61 63 -10 21 -18 25 -57
25 l-46 0 3 -42z"/>
</g>
</svg>
